<?xml version="1.0" standalone="no"?>
<!DOCTYPE svg PUBLIC "-//W3C//DTD SVG 20010904//EN"
 "http://www.w3.org/TR/2001/REC-SVG-20010904/DTD/svg10.dtd">
<svg version="1.0" xmlns="http://www.w3.org/2000/svg"
 width="309.000000pt" height="313.000000pt" viewBox="0 0 309.000000 313.000000"
 preserveAspectRatio="xMidYMid meet">

<g transform="translate(0.000000,313.000000) scale(0.100000,-0.100000)"
fill="#000000" stroke="none">
<path d="M432 3109 c-76 -13 -189 -68 -248 -122 -62 -56 -108 -125 -143 -215
l-26 -67 -3 -1100 c-2 -752 1 -1122 8 -1170 33 -213 208 -390 421 -424 88 -15
2110 -15 2198 0 213 34 388 211 421 424 7 48 10 418 8 1170 l-3 1100 -26 67
c-72 185 -218 308 -400 337 -79 13 -2129 13 -2207 0z m1143 -599 c173 -25 348
-96 452 -182 191 -159 283 -396 283 -728 0 -415 -139 -676 -435 -820 -175 -85
-272 -100 -652 -100 -316 0 -307 -2 -318 73 -3 23 -5 424 -3 890 3 827 4 849
22 863 16 11 74 14 300 14 155 0 313 -5 351 -10z"/>
<path d="M1150 1600 l0 -702 228 4 c216 4 231 5 305 31 43 15 90 35 105 44
139 89 226 236 263 449 17 97 6 349 -18 439 -46 167 -142 288 -283 357 -125
61 -172 70 -397 75 l-203 5 0 -702z"/>
</g>
</svg>
